<svg xmlns="http://www.w3.org/2000/svg" enable-background="new 0 0 24 24" viewBox="0 0 24 24"><path fill="#F36003" d="M23.25,3.161c0-1.331-1.08-2.411-2.411-2.411H3.161C1.83,0.75,0.75,1.83,0.75,3.161v17.679c0,1.331,1.08,2.411,2.411,2.411h17.679c1.331,0,2.411-1.08,2.411-2.411V3.161z"/><path d="M20.786,24H3.214C1.441,24,0,22.558,0,20.786V3.214C0,1.442,1.441,0,3.214,0h17.572C22.559,0,24,1.442,24,3.214v17.571C24,22.558,22.559,24,20.786,24z M3.214,1.5C2.269,1.5,1.5,2.269,1.5,3.214v17.571c0,0.945,0.769,1.714,1.714,1.714h17.572c0.945,0,1.714-0.769,1.714-1.714V3.214c0-0.945-0.769-1.714-1.714-1.714H3.214z"/><path d="M11.954,13c-0.001,0-0.003,0-0.004,0c-0.253-0.001-0.488-0.13-0.626-0.343l-4.204-6.5C6.896,5.81,6.995,5.345,7.343,5.12C7.69,4.897,8.154,4.994,8.38,5.343l3.581,5.537l3.663-5.543c0.229-0.345,0.693-0.442,1.039-0.212c0.346,0.228,0.441,0.693,0.213,1.039l-4.296,6.5C12.44,12.874,12.206,13,11.954,13z"/><path d="M12,19c-0.414,0-0.75-0.336-0.75-0.75v-6c0-0.414,0.336-0.75,0.75-0.75s0.75,0.336,0.75,0.75v6C12.75,18.664,12.414,19,12,19z"/></svg>